<?xml version="1.0" encoding="UTF-8" standalone="no"?>
<!DOCTYPE svg PUBLIC "-//W3C//DTD SVG 1.1//EN" "http://www.w3.org/Graphics/SVG/1.1/DTD/svg11.dtd">
<svg width="100%" height="100%" viewBox="0 0 222 235" version="1.1" xmlns="http://www.w3.org/2000/svg" xmlns:xlink="http://www.w3.org/1999/xlink" xml:space="preserve" xmlns:serif="http://www.serif.com/" style="fill-rule:evenodd;clip-rule:evenodd;stroke-linejoin:round;stroke-miterlimit:2;">
    <path d="M57,117.4C57,117.4 57.1,117.3 57,117.3L57,117.4Z" style="fill:rgb(152,131,102);fill-rule:nonzero;"/>
    <path d="M86.7,134.2C93.1,134.2 96,133.3 97.3,131.4C90.1,129.2 86.1,124 80.8,121.5C78.8,120.6 76.4,120.9 74.9,122.6C74,123.7 73.4,124.9 73.4,126C73.4,129.8 78,134.2 86.6,134.2L86.7,134.2Z" style="fill:rgb(152,131,102);fill-rule:nonzero;"/>
    <path d="M149.9,126C149.9,125 149.3,123.7 148.4,122.6C147,120.9 144.5,120.5 142.5,121.5C137.1,124 133.1,129.2 126,131.4C127.4,133.3 130.2,134.2 136.6,134.2C143,134.2 149.8,129.8 149.8,126L149.9,126Z" style="fill:rgb(152,131,102);fill-rule:nonzero;"/>
    <path d="M217.3,143.8C206,116.8 180.4,72.3 165.5,39.7C159.9,27.5 150.3,17.5 138.2,11.6C130.8,8 121.5,4.5 110.6,2.3C99.8,4.5 90.5,8 83,11.6C70.9,17.5 60.7,27.2 55.7,39.7C42.2,74.2 15.3,116.9 4,143.8C1.1,150.8 1.7,158.8 5.7,165.3C11.6,174.7 28.4,192.9 33.2,202.7C36.4,209.1 42.2,213.8 49.2,215.4C66.1,219.2 96.3,223.2 108.3,232.4C108.3,232.4 108.5,232.6 108.6,232.6C108.6,232.3 108.6,232.1 108.5,231.8C107.5,226 105.7,220.3 102.8,215.2C99.9,210 95.9,205.4 90.7,202.1C88.4,200.5 85.9,199.2 83.3,198.1C78.4,196 73.2,194.4 68.2,193L65.8,192.3C59.6,190.8 54.4,186.1 52,180.2C50,175.7 47.5,171.5 44.9,167.4C42.3,163 38.7,159.2 36.7,154.5C35.2,150.8 35,146.6 35.9,142.7C36.2,141.3 36.7,139.9 37.4,138.5C40.7,130.8 43.9,123.1 47.9,115.7C48.2,115.2 48.4,114.8 48.7,114.3L49,114.8L49,114.3C48.9,114.3 49.5,113.3 50.7,111.6C54.6,105.8 64.9,92.1 79.9,81.4C84.3,78.3 90.2,78.4 94.4,81.8L111.2,95.3L128,81.8C132.2,78.4 138.2,78.3 142.6,81.5C157.8,92.1 167.7,105.4 171.6,111.3C172,111.7 172.4,112.1 172.8,112.5C173.4,113.1 173.9,113.7 174.4,114.4C177.8,118.7 180,123.8 182.4,128.7C183.4,131 185.3,135.6 186.1,137.9C189.3,145.1 188.8,154.1 183.9,160.4C178.7,167.5 173.5,174.6 169.8,182.5C167.5,186.8 163.9,190.3 159.4,192.2C156.4,193.5 153,194.2 150,195.4C144.4,197.5 139.2,200.3 134.5,203.8C130.4,206.8 126.7,210.3 123.5,214.1C118.9,219.5 115.2,225.7 112.6,232.4C124.6,223.2 154.9,219.1 171.8,215.3C178.8,213.7 184.6,209.1 187.8,202.6C192.6,192.9 209.5,174.7 215.3,165.2C219.3,158.7 220,150.7 217,143.7L217.3,143.8Z" style="fill:rgb(152,131,102);fill-rule:nonzero;"/>
    <path d="M129.9,199.5C134.1,196 138.6,193.1 143.5,190.6C144.8,189.9 146.2,189.3 147.5,188.7C150.4,187.3 153.5,186.5 156.4,185.2C159.1,183.8 161.3,181.5 162.6,178.7C164.9,173.3 167.9,168.2 171.4,163.5C173.9,159.6 177.4,156.4 179.3,152.1C180.3,149.3 180.3,146.1 179.1,143.4C179.1,143.2 178.9,143 178.9,142.8L177.9,140.6C176.5,137.7 175,134.8 173.3,132.1C172.4,130.7 171.5,129.3 170.5,128C169.6,126.8 168.7,125.5 167.7,124.4L163,134.8C159.5,140.1 154.3,144.1 148.2,145.9C143,147.5 137.4,147.4 132.2,145.6L114.8,139.8C112.2,138.9 109.4,139 106.9,140L94.9,144.7C89.1,147 82.7,147.1 76.7,145.2L74,144.3C67.7,142.2 62.4,137.9 59.2,132.1L53.9,122.8C53.3,124 52.7,125.1 52.1,126.3C51.1,128.4 50.1,130.4 49.1,132.5C47.7,135.5 46.3,138.4 44.9,141.4C43.3,144.3 42.7,147.8 43.6,151C43.6,151.2 43.7,151.5 43.8,151.7C44.1,152.7 44.6,153.6 45.1,154.5C49,160.4 52.7,166.4 55.8,172.7C57.3,175.4 58.1,178.5 59.8,181.1C61.6,183.9 64.5,185.8 67.7,186.7L70,187.5C71.3,187.9 72.6,188.3 73.8,188.7C87.7,193.3 100.5,200 107.2,214.1C108,215.7 108.6,217.3 109.2,218.9C109.9,221 110.5,223 111,225.1C111.8,223.3 112.6,221.5 113.5,219.8C117.6,212 123.1,204.9 130,199.3L129.9,199.5Z" style="fill:rgb(152,131,102);fill-rule:nonzero;"/>
</svg>
